<?xml version="1.0" encoding="UTF-8" standalone="no"?>
<!-- Created with Inkscape (http://www.inkscape.org/) -->

<svg
   width="137.9534mm"
   height="76.029411mm"
   viewBox="0 0 137.9534 76.029411"
   version="1.1"
   id="svg1"
   xml:space="preserve"
   sodipodi:docname="inverted_logo.svg"
   inkscape:version="1.4 (1:1.4+202410161351+e7c3feb100)"
   inkscape:export-filename="logo.png"
   inkscape:export-xdpi="200"
   inkscape:export-ydpi="200"
   xmlns:inkscape="http://www.inkscape.org/namespaces/inkscape"
   xmlns:sodipodi="http://sodipodi.sourceforge.net/DTD/sodipodi-0.dtd"
   xmlns:xlink="http://www.w3.org/1999/xlink"
   xmlns="http://www.w3.org/2000/svg"
   xmlns:svg="http://www.w3.org/2000/svg"><sodipodi:namedview
     id="namedview1"
     pagecolor="#ffffff"
     bordercolor="#000000"
     borderopacity="0.25"
     inkscape:showpageshadow="2"
     inkscape:pageopacity="0.0"
     inkscape:pagecheckerboard="0"
     inkscape:deskcolor="#d1d1d1"
     inkscape:document-units="mm"
     inkscape:zoom="1.9300999"
     inkscape:cx="289.62231"
     inkscape:cy="180.30154"
     inkscape:window-width="1920"
     inkscape:window-height="968"
     inkscape:window-x="1536"
     inkscape:window-y="40"
     inkscape:window-maximized="1"
     inkscape:current-layer="layer1" /><defs
     id="defs1"><linearGradient
       id="linearGradient8"
       inkscape:collect="always"><stop
         style="stop-color:#1159cc;stop-opacity:1;"
         offset="0"
         id="stop8" /><stop
         style="stop-color:#1159cc;stop-opacity:0;"
         offset="1"
         id="stop9" /></linearGradient><style
       type="text/css"
       id="style1">*{stroke-linejoin: round; stroke-linecap: butt}</style><path
       id="Quicksand-Bold-62"
       d="m 2189,3488 q 448,0 803,-227 355,-227 563,-624 208,-397 208,-922 0,-525 -208,-925 -208,-400 -557,-627 -348,-227 -784,-227 -256,0 -480,83 -224,83 -394,211 -169,128 -262,259 -92,132 -92,221 l 198,84 V 326 Q 1184,160 1075,48 966,-64 800,-64 634,-64 525,45 416,154 416,326 v 4020 q 0,166 109,278 109,112 275,112 166,0 275,-112 109,-112 109,-278 V 2720 l -109,58 q 0,83 89,201 90,119 244,237 154,118 355,195 202,77 426,77 z m -96,-704 q -282,0 -493,-141 -211,-141 -330,-381 -118,-240 -118,-547 0,-301 118,-547 119,-246 330,-387 211,-141 493,-141 281,0 489,141 208,141 326,387 119,246 119,547 0,307 -119,547 -118,240 -326,381 -208,141 -489,141 z"
       transform="scale(0.015625)" /><path
       id="Quicksand-Bold-6d"
       d="m 2214,3488 q 512,0 755,-247 244,-246 321,-636 l -109,57 51,103 q 77,147 237,316 160,170 387,288 227,119 509,119 461,0 701,-199 240,-198 329,-528 90,-329 90,-732 V 390 Q 5485,224 5376,112 5267,0 5101,0 4934,0 4825,112 4717,224 4717,390 v 1639 q 0,211 -52,380 -51,170 -185,272 -134,103 -384,103 -243,0 -416,-103 -173,-102 -260,-272 -86,-169 -86,-380 V 390 Q 3334,224 3225,112 3117,0 2950,0 2784,0 2675,112 2566,224 2566,390 v 1639 q 0,211 -51,380 -51,170 -186,272 -134,103 -383,103 -244,0 -417,-103 -172,-102 -259,-272 -86,-169 -86,-380 V 390 Q 1184,224 1075,112 966,0 800,0 634,0 525,112 416,224 416,390 v 2644 q 0,166 109,278 109,112 275,112 166,0 275,-112 109,-112 109,-278 v -276 l -96,20 q 58,108 160,233 102,125 249,234 148,109 327,176 179,67 390,67 z"
       transform="scale(0.015625)" /><path
       id="Quicksand-Bold-69"
       d="M 1139,390 Q 1139,224 1030,112 922,0 755,0 589,0 480,112 371,224 371,390 v 2644 q 0,166 109,278 109,112 275,112 167,0 275,-112 109,-112 109,-278 z M 749,3840 q -218,0 -308,70 -89,71 -89,250 v 122 q 0,185 99,252 99,68 304,68 224,0 313,-71 90,-70 90,-249 v -122 q 0,-186 -96,-253 -96,-67 -313,-67 z"
       transform="scale(0.015625)" /><linearGradient
       inkscape:collect="always"
       xlink:href="#linearGradient8"
       id="linearGradient9"
       x1="57.703381"
       y1="90.575086"
       x2="73.055077"
       y2="90.575086"
       gradientUnits="userSpaceOnUse" /></defs><g
     inkscape:label="Layer 1"
     inkscape:groupmode="layer"
     id="layer1"
     transform="translate(-38.710852,-37.904653)"><g
       id="g6"
       transform="translate(3.7173786,-27.369423)"
       style="fill:#ffffff;fill-opacity:1"><rect
         style="fill:#ffffff;fill-opacity:1;stroke:none;stroke-width:0.975772;stroke-linecap:round"
         id="rect4"
         width="81.266922"
         height="38.657322"
         x="62.078655"
         y="102.64616" /><g
         id="g5"
         transform="translate(1.5079098)"
         style="fill:#ffffff;fill-opacity:1"><circle
           style="fill:#ffffff;fill-opacity:1;stroke:none;stroke-width:1.26129;stroke-linecap:round"
           id="path5"
           cx="60.570744"
           cy="114.2183"
           r="27.08518" /><circle
           style="fill:#ffffff;fill-opacity:1;stroke:none;stroke-width:1.24685;stroke-linecap:round;stroke-linejoin:round"
           id="path5-3"
           cx="78.515244"
           cy="92.049225"
           r="26.775148" /><circle
           style="fill:#ffffff;fill-opacity:1;stroke:none;stroke-width:1.24685;stroke-linecap:round;stroke-linejoin:round"
           id="path5-3-0"
           cx="115.33591"
           cy="98.545654"
           r="26.775148" /><circle
           style="fill:#ffffff;fill-opacity:1;stroke:none;stroke-width:1.30629;stroke-linecap:round;stroke-linejoin:round"
           id="path5-3-9"
           cx="143.38744"
           cy="113.25196"
           r="28.051525" /></g></g></g><g
     id="g7"
     transform="translate(-40.298352,-42.667154)"><g
       id="g8"><g
         id="figure_1"
         transform="matrix(0.07158392,0,0,0.07158392,73.478827,76.738602)"><g
           id="patch_1"><path
             d="M 0,484.4 H 904.86875 V 0 H 0 Z"
             style="fill:none"
             id="path1" /></g><g
           id="text_1"
           style="stroke:#ffffff;stroke-opacity:1"><!-- bmi --><g
             style="fill:#808080;stroke:#ffffff;stroke-opacity:1"
             transform="matrix(5,0,0,-5,7.2,377.2)"
             id="g4"><defs
               id="defs2"><path
                 id="path2"
                 d="m 2189,3488 q 448,0 803,-227 355,-227 563,-624 208,-397 208,-922 0,-525 -208,-925 -208,-400 -557,-627 -348,-227 -784,-227 -256,0 -480,83 -224,83 -394,211 -169,128 -262,259 -92,132 -92,221 l 198,84 V 326 Q 1184,160 1075,48 966,-64 800,-64 634,-64 525,45 416,154 416,326 v 4020 q 0,166 109,278 109,112 275,112 166,0 275,-112 109,-112 109,-278 V 2720 l -109,58 q 0,83 89,201 90,119 244,237 154,118 355,195 202,77 426,77 z m -96,-704 q -282,0 -493,-141 -211,-141 -330,-381 -118,-240 -118,-547 0,-301 118,-547 119,-246 330,-387 211,-141 493,-141 281,0 489,141 208,141 326,387 119,246 119,547 0,307 -119,547 -118,240 -326,381 -208,141 -489,141 z"
                 transform="scale(0.015625)" /><path
                 id="path3"
                 d="m 2214,3488 q 512,0 755,-247 244,-246 321,-636 l -109,57 51,103 q 77,147 237,316 160,170 387,288 227,119 509,119 461,0 701,-199 240,-198 329,-528 90,-329 90,-732 V 390 Q 5485,224 5376,112 5267,0 5101,0 4934,0 4825,112 4717,224 4717,390 v 1639 q 0,211 -52,380 -51,170 -185,272 -134,103 -384,103 -243,0 -416,-103 -173,-102 -260,-272 -86,-169 -86,-380 V 390 Q 3334,224 3225,112 3117,0 2950,0 2784,0 2675,112 2566,224 2566,390 v 1639 q 0,211 -51,380 -51,170 -186,272 -134,103 -383,103 -244,0 -417,-103 -172,-102 -259,-272 -86,-169 -86,-380 V 390 Q 1184,224 1075,112 966,0 800,0 634,0 525,112 416,224 416,390 v 2644 q 0,166 109,278 109,112 275,112 166,0 275,-112 109,-112 109,-278 v -276 l -96,20 q 58,108 160,233 102,125 249,234 148,109 327,176 179,67 390,67 z"
                 transform="scale(0.015625)" /><path
                 id="path4"
                 d="M 1139,390 Q 1139,224 1030,112 922,0 755,0 589,0 480,112 371,224 371,390 v 2644 q 0,166 109,278 109,112 275,112 167,0 275,-112 109,-112 109,-278 z M 749,3840 q -218,0 -308,70 -89,71 -89,250 v 122 q 0,185 99,252 99,68 304,68 224,0 313,-71 90,-70 90,-249 v -122 q 0,-186 -96,-253 -96,-67 -313,-67 z"
                 transform="scale(0.015625)" /></defs><use
               xlink:href="#Quicksand-Bold-62"
               id="use2"
               style="fill:#1159cc;stroke:#ffffff;stroke-opacity:1;fill-opacity:1" /><use
               xlink:href="#Quicksand-Bold-6d"
               x="62.299988"
               id="use3"
               style="fill:#1159cc;stroke:#ffffff;stroke-opacity:1;fill-opacity:1" /><use
               xlink:href="#Quicksand-Bold-69"
               x="154.49997"
               id="use4"
               style="fill:#1159cc;stroke:#ffffff;stroke-opacity:1;fill-opacity:1" /></g></g></g><text
         xml:space="preserve"
         style="font-size:39.7475px;text-align:start;writing-mode:lr-tb;direction:ltr;text-anchor:start;fill:#1159cc;fill-opacity:1;stroke:none;stroke-width:0.782431;stroke-linecap:round"
         x="52.734943"
         y="102.43335"
         id="text6"><tspan
           sodipodi:role="line"
           id="tspan6"
           style="font-size:39.7475px;fill:#1159cc;fill-opacity:1;stroke:none;stroke-width:0.782431;stroke-opacity:1"
           x="52.734943"
           y="102.43335">{</tspan></text><text
         xml:space="preserve"
         style="font-size:39.7475px;text-align:start;writing-mode:lr-tb;direction:ltr;text-anchor:start;fill:#1159cc;fill-opacity:1;stroke:none;stroke-width:0.782431;stroke-linecap:round;stroke-linejoin:round"
         x="-161.29474"
         y="102.43335"
         id="text6-0"
         transform="scale(-1,1)"><tspan
           sodipodi:role="line"
           id="tspan6-6"
           style="font-size:39.7475px;fill:#1159cc;fill-opacity:1;stroke:none;stroke-width:0.782431;stroke-opacity:1"
           x="-161.29474"
           y="102.43335">{</tspan></text></g></g></svg>
